<svg xmlns="http://www.w3.org/2000/svg" width="256" height="256" viewBox="0 0 100 100"><rect width="100" height="100" rx="20" fill="#01bfd7"></rect><path fill="#fff" d="M32.28 59.78L32.28 59.78Q31.81 60.12 31.04 60.38Q30.27 60.65 29.33 60.65L29.33 60.65Q28.26 60.65 27.42 60.32Q26.58 59.98 26.25 59.25L26.25 59.25Q22.63 51.74 20.02 45.51Q17.40 39.28 15.80 35.19L15.80 35.19L15.53 35.19Q15.33 40.22 15.09 44.54Q14.86 48.86 14.59 52.98Q14.32 57.10 14.05 61.32Q13.79 65.54 13.52 70.37L13.52 70.37Q13.12 70.50 12.48 70.64Q11.84 70.77 11.11 70.77L11.11 70.77Q9.63 70.77 9.03 70.17Q8.43 69.56 8.43 68.42L8.43 68.42Q8.43 67.75 8.53 65.54Q8.63 63.33 8.83 60.18Q9.03 57.03 9.26 53.22Q9.50 49.40 9.80 45.44Q10.10 41.49 10.40 37.67Q10.70 33.85 10.97 30.70L10.97 30.70Q11.51 30.23 12.51 29.83Q13.52 29.43 14.79 29.43L14.79 29.43Q17.87 29.43 19.08 31.91L19.08 31.91Q20.35 34.52 21.66 37.44Q22.97 40.35 24.27 43.37Q25.58 46.38 26.82 49.33Q28.06 52.28 29.20 54.96L29.20 54.96L29.46 54.96Q30.94 51.41 32.41 47.96Q33.89 44.51 35.29 41.29Q36.70 38.07 37.97 35.26Q39.25 32.45 40.25 30.10L40.25 30.10Q40.85 29.77 41.79 29.60Q42.73 29.43 43.53 29.43L43.53 29.43Q46.68 29.43 47.15 31.57L47.15 31.57Q47.42 32.78 47.76 35.56Q48.09 38.34 48.43 41.96Q48.76 45.58 49.06 49.73Q49.36 53.89 49.63 57.74Q49.90 61.59 50.10 64.84Q50.30 68.09 50.44 69.97L50.44 69.97Q49.23 70.77 47.62 70.77L47.62 70.77Q46.62 70.77 45.85 70.27Q45.08 69.77 44.94 68.42L44.94 68.42Q44.61 63.53 44.34 58.71Q44.07 53.89 43.84 49.53Q43.60 45.18 43.40 41.52Q43.20 37.87 43.07 35.33L43.07 35.33L42.80 35.33Q42.06 37.20 41.09 39.55Q40.12 41.89 38.81 44.84Q37.50 47.79 35.90 51.51Q34.29 55.23 32.28 59.78ZM89.97 39.88L89.97 39.88Q89.97 42.76 88.59 45.21Q87.22 47.65 84.00 48.99L84.00 48.99Q87.82 50.27 89.70 52.98Q91.57 55.69 91.57 59.11L91.57 59.11Q91.57 65.21 87.19 68.16Q82.80 71.10 74.69 71.10L74.69 71.10Q71.88 71.10 69.23 70.87Q66.58 70.64 64.17 69.97L64.17 69.97Q61.36 69.16 61.36 66.88L61.36 66.88L61.36 32.58Q61.36 30.64 63.57 30.03L63.57 30.03Q65.85 29.36 68.39 29.13Q70.94 28.89 73.95 28.89L73.95 28.89Q81.52 28.89 85.74 31.57Q89.97 34.25 89.97 39.88ZM75.83 51.41L66.72 51.41L66.72 65.88Q68.32 66.21 70.44 66.41Q72.55 66.62 74.69 66.62L74.69 66.62Q80.25 66.62 83.13 64.77Q86.01 62.93 86.01 58.98L86.01 58.98Q86.01 55.49 83.43 53.45Q80.85 51.41 75.83 51.41L75.83 51.41ZM66.72 33.99L66.72 46.98L75.83 46.98Q80.05 46.98 82.23 45.11Q84.40 43.23 84.40 40.02L84.40 40.02Q84.40 33.38 73.95 33.38L73.95 33.38Q71.61 33.38 69.90 33.55Q68.19 33.72 66.72 33.99L66.72 33.99Z"></path></svg>